<?xml version="1.0" encoding="utf-8"?>
<!-- Generator: Adobe Illustrator 23.0.1, SVG Export Plug-In . SVG Version: 6.00 Build 0)  -->
<svg version="1.1" id="logo" xmlns="http://www.w3.org/2000/svg" xmlns:xlink="http://www.w3.org/1999/xlink" x="0px" y="0px"
	 width="537.84px" height="129.73px" viewBox="0 0 537.84 129.73" enable-background="new 0 0 537.84 129.73" xml:space="preserve">
<g>
	<path fill="#365989" d="M239.07,104.38l-16.61-75.55c-0.14-1.43-0.86-2.14-2.14-2.14h-10.82c-0.71,0-1.27,0.09-1.66,0.27
		c-0.39,0.18-0.73,0.55-1.02,1.13l-38.15,75.66c-0.01,0.01-0.01,0.02-0.02,0.03c-0.55,1.12,0.34,2.43,1.59,2.43l7.96,0
		c0.5,0,0.86-0.05,1.07-0.16c0.21-0.11,0.39-0.34,0.54-0.7l31.4-63.87c0.36-0.79,0.68-1.18,0.96-1.18c0.28,0,0.46,0.32,0.54,0.96
		l13.4,63.44c0.14,1,0.68,1.5,1.61,1.5h10.18c0.86,0,1.29-0.43,1.29-1.29L239.07,104.38z"/>
	<path fill="#365989" d="M257.5,104.49c-0.07,0.79-0.25,1.27-0.54,1.45c-0.29,0.18-0.86,0.27-1.71,0.27h-7.29
		c-1.43,0-2.07-0.68-1.93-2.04l11.04-76.19c0.07-0.57,0.18-0.93,0.32-1.07c0.14-0.14,0.46-0.21,0.96-0.21h8.79
		c0.86,0,1.18,0.57,0.96,1.71L257.5,104.49z"/>
	<path fill="#365989" d="M279.47,103.57c-2.14-1.75-3.21-4.34-3.21-7.77c0-1.43,0.07-2.54,0.21-3.32l4.72-33.86v-0.21
		c0-0.57-0.39-0.86-1.18-0.86h-8.04c-0.71,0-1.04-0.54-0.97-1.61l0.86-5.68c0.07-0.36,0.18-0.59,0.32-0.7
		c0.14-0.11,0.43-0.16,0.86-0.16h8.57c0.28,0,0.55-0.14,0.8-0.43c0.25-0.28,0.41-0.57,0.48-0.86l3.64-16.82
		c0.14-0.79,0.68-1.18,1.61-1.18h7.39c0.43,0,0.73,0.16,0.91,0.48c0.18,0.32,0.23,0.84,0.16,1.55l-2.47,16.29v0.21
		c0,0.5,0.28,0.75,0.86,0.75h12.64c1,0,1.46,0.39,1.39,1.18l-0.86,6c-0.07,0.36-0.2,0.61-0.38,0.75c-0.18,0.14-0.52,0.21-1.02,0.21
		h-12.86c-0.86,0-1.32,0.47-1.39,1.39l-4.39,31.4c-0.21,0.93-0.32,1.82-0.32,2.68c0,1.93,0.48,3.23,1.45,3.91
		c0.96,0.68,2.48,1.02,4.55,1.02h6.86c0.36,0,0.68,0.18,0.96,0.54c0.28,0.36,0.39,0.72,0.32,1.07l-0.75,4.61
		c-0.07,1-0.54,1.54-1.39,1.61c-2.5,0.29-6.11,0.43-10.82,0.43C284.79,106.2,281.61,105.33,279.47,103.57z"/>
	<path fill="#365989" d="M317.94,103.43c-3.72-2.04-6.57-4.89-8.57-8.57c-2-3.68-3-7.91-3-12.7c0-5.93,1.32-11.55,3.96-16.88
		c2.64-5.32,6.38-9.61,11.2-12.86c4.82-3.25,10.34-4.88,16.56-4.88c7.14,0,12.77,2.11,16.88,6.32c4.11,4.22,6.16,10.07,6.16,17.57
		c0,2.14-0.14,4.18-0.43,6.11c-0.07,1.14-0.82,1.71-2.25,1.71h-39.22c-0.57,0-0.96,0.38-1.18,1.13c-0.21,0.75-0.32,1.98-0.32,3.7
		c0,4.36,1.34,7.81,4.02,10.34c2.68,2.54,6.2,3.8,10.56,3.8c6.57,0,12.22-2.79,16.93-8.36c0.28-0.28,0.61-0.43,0.96-0.43
		c0.36,0,0.68,0.11,0.97,0.32l5.04,2.57c0.57,0.21,0.86,0.61,0.86,1.18c0,0.29-0.11,0.61-0.32,0.96c-3.64,4.29-7.52,7.36-11.63,9.22
		c-4.11,1.86-8.88,2.79-14.31,2.79C325.94,106.48,321.65,105.46,317.94,103.43z M348.16,72.72c0.78,0,1.39-0.34,1.82-1.02
		c0.43-0.68,0.64-1.88,0.64-3.59c0-3.79-1.14-6.89-3.43-9.32c-2.29-2.43-5.36-3.64-9.22-3.64c-3.29,0-6.29,0.82-9,2.47
		c-2.72,1.64-4.91,3.8-6.59,6.48c-1.68,2.68-2.7,5.56-3.05,8.63H348.16z"/>
	<path fill="#365989" d="M411.19,103.43c-3.72-2.04-6.57-4.89-8.57-8.57c-2-3.68-3-7.91-3-12.7c0-5.93,1.32-11.55,3.97-16.88
		c2.64-5.32,6.38-9.61,11.2-12.86c4.82-3.25,10.34-4.88,16.56-4.88c7.14,0,12.77,2.11,16.88,6.32c4.11,4.22,6.16,10.07,6.16,17.57
		c0,2.14-0.14,4.18-0.43,6.11c-0.07,1.14-0.82,1.71-2.25,1.71h-39.22c-0.57,0-0.96,0.38-1.18,1.13c-0.21,0.75-0.32,1.98-0.32,3.7
		c0,4.36,1.34,7.81,4.02,10.34c2.68,2.54,6.2,3.8,10.56,3.8c6.57,0,12.22-2.79,16.93-8.36c0.28-0.28,0.61-0.43,0.96-0.43
		c0.36,0,0.68,0.11,0.97,0.32l5.04,2.57c0.57,0.21,0.86,0.61,0.86,1.18c0,0.29-0.11,0.61-0.32,0.96c-3.64,4.29-7.52,7.36-11.63,9.22
		c-4.11,1.86-8.88,2.79-14.31,2.79C419.19,106.48,414.9,105.46,411.19,103.43z M441.41,72.72c0.78,0,1.39-0.34,1.82-1.02
		c0.43-0.68,0.64-1.88,0.64-3.59c0-3.79-1.14-6.89-3.43-9.32c-2.29-2.43-5.36-3.64-9.22-3.64c-3.29,0-6.29,0.82-9,2.47
		c-2.72,1.64-4.91,3.8-6.59,6.48c-1.68,2.68-2.7,5.56-3.05,8.63H441.41z"/>
	<path fill="#365989" d="M363.75,105.61c-0.32-0.39-0.41-0.87-0.27-1.45l7.5-53.47c0.07-0.57,0.18-0.93,0.32-1.07
		c0.14-0.14,0.46-0.21,0.97-0.21h8.36c1,0,1.39,0.57,1.18,1.71l-0.86,5.79v0.43c0,0.29,0.11,0.43,0.32,0.43
		c0.29,0,0.57-0.14,0.86-0.43c2.86-3,5.77-5.25,8.73-6.75c2.96-1.5,5.8-2.25,8.52-2.25c2.79,0,4.14,0.47,4.07,1.39l-1.18,8.14
		c-0.07,0.5-0.16,0.82-0.27,0.96c-0.11,0.14-0.31,0.21-0.59,0.21c-1.93-0.21-3.79-0.32-5.57-0.32c-2.07,0-4.34,0.59-6.81,1.77
		c-2.46,1.18-4.61,2.68-6.43,4.5c-1.82,1.82-2.84,3.66-3.05,5.52l-4.82,34.19c-0.07,0.64-0.23,1.05-0.48,1.23
		c-0.25,0.18-0.73,0.27-1.45,0.27h-7.61C364.55,106.2,364.07,106,363.75,105.61z"/>
	<path fill="#365989" d="M497.58,105.41c-0.5,0-0.91-0.14-1.23-0.43c-0.32-0.28-0.45-0.71-0.38-1.29l0.64-4.07v-0.43
		c0-0.28-0.11-0.43-0.32-0.43c-0.14,0-0.5,0.21-1.07,0.64c-5.29,4.72-11,7.07-17.15,7.07c-6.15,0-11.06-1.95-14.74-5.84
		c-3.68-3.89-5.52-9.48-5.52-16.77c0-6.07,1.16-11.9,3.48-17.47c2.32-5.57,5.68-10.11,10.07-13.61c4.39-3.5,9.48-5.25,15.27-5.25
		c3.21,0,5.89,0.54,8.04,1.61c2.14,1.07,4.11,2.57,5.89,4.5c0.43,0.43,0.82,0.64,1.18,0.64c0.5,0,0.86-0.71,1.07-2.14l3.64-24.86
		c0.07-0.57,0.21-0.95,0.43-1.13c0.21-0.18,0.57-0.27,1.07-0.27h8.68c0.86,0,1.18,0.64,0.96,1.93l-10.72,75.87
		c-0.07,0.64-0.25,1.09-0.54,1.34c-0.29,0.25-0.79,0.38-1.5,0.38H497.58z M501.65,61.69c-1.71-2.14-3.52-3.73-5.41-4.77
		c-1.89-1.04-4.09-1.55-6.59-1.55c-4.36,0-8.07,1.46-11.14,4.39c-3.07,2.93-5.38,6.59-6.91,10.98c-1.54,4.39-2.3,8.81-2.3,13.23
		c0,4.93,1.18,8.63,3.54,11.09c2.36,2.47,5.47,3.7,9.32,3.7c2.57,0,5.04-0.62,7.39-1.88c2.36-1.25,4.29-2.82,5.79-4.72
		c1.5-1.89,2.39-3.77,2.68-5.63L501.65,61.69z"/>
</g>
<g>
	<path fill="#365989" d="M34.67,97.81c-5.1-5.62-7.64-13.32-7.64-23.09c0-8.79,1.62-16.9,4.85-24.36
		c3.23-7.45,7.87-13.39,13.92-17.82c6.04-4.43,13.07-6.64,21.09-6.64c5.06,0,9.63,1.04,13.71,3.11c4.08,2.07,7.28,4.8,9.59,8.17
		c2.32,3.37,3.51,6.96,3.58,10.75c0,0.56-0.05,0.95-0.16,1.16c-0.11,0.21-0.3,0.35-0.58,0.42L83.12,51h-0.21
		c-0.35,0-0.63-0.63-0.84-1.9c-0.35-3.94-1.92-7.22-4.69-9.86c-2.78-2.64-6.42-3.95-10.91-3.95c-5.84,0-10.72,1.95-14.66,5.85
		c-3.94,3.9-6.85,8.96-8.75,15.18c-1.9,6.22-2.85,12.85-2.85,19.88c0,13.78,5.41,18.44,16.66,18.44c3.94,0,13.54-1.55,21.93-21.18
		H62.87c-0.63,0-0.91-0.35-0.84-1.05l0.74-6.12c0.07-0.56,0.35-0.84,0.84-0.84l27.94,0.11c0.56,0,0.93,0.11,1.11,0.32
		c0.17,0.21,0.23,0.56,0.16,1.05l-4.22,29.6c-0.07,0.84-0.52,2.16-1.43,2.16l-3.63-0.06c-0.97,0.01-1.28-1.2-1.18-2
		c1.88-18.72,2.39-19.45,2.25-19.47c-0.12-0.01-3.51,28.21-30.54,28.21C45,105.36,39.76,103.44,34.67,97.81z"/>
	<path fill="#365989" d="M107.47,103.24c-3.58-2-6.34-4.81-8.28-8.44c-1.93-3.62-2.9-7.82-2.9-12.6c0-6.47,1.41-12.28,4.22-17.45
		c2.81-5.17,6.61-9.21,11.39-12.13c4.78-2.92,10.02-4.38,15.71-4.38c4.78,0,8.96,1.04,12.55,3.11c3.58,2.07,6.33,4.96,8.22,8.65
		c1.9,3.69,2.85,7.96,2.85,12.81c0,6.33-1.37,12.04-4.11,17.13c-2.74,5.1-6.48,9.09-11.23,11.97c-4.74,2.88-10,4.32-15.76,4.32
		C115.28,106.25,111.06,105.24,107.47,103.24z M130.56,95.02c2.95-2.21,5.29-5.39,7.01-9.54c1.72-4.15,2.58-9,2.58-14.55
		c0-4.71-1.11-8.38-3.32-11.02c-2.21-2.64-5.36-3.95-9.44-3.95c-3.73,0-7.08,1.12-10.07,3.37c-2.99,2.25-5.36,5.47-7.12,9.65
		c-1.76,4.18-2.64,9.05-2.64,14.6c0,4.64,1.12,8.26,3.37,10.86c2.25,2.6,5.45,3.9,9.59,3.9C124.27,98.34,127.61,97.23,130.56,95.02z
		"/>
</g>
<path fill="#365989" d="M81.03,93.08"/>
<g>
	<path fill="#365989" d="M121.5,54.58c-1.4,0.98-2.71,2.05-3.87,3.25c-1.17,1.18-2.21,2.45-2.98,3.82c-0.78,1.37-1.3,2.8-1.48,4.21
		c-0.18,1.42,0.03,2.82,0.5,4.13c0.47,1.32,1.19,2.59,2.09,3.77c0.43,0.6,0.95,1.16,1.44,1.73c0.42,0.4,0.8,0.72,1.36,1.01
		c2.12,1.18,5.24,1.63,8.22,1.65c0.76,0,1.47-0.02,2.22-0.08c0.78-0.06,1.57-0.15,2.37-0.25c1.59-0.2,3.19-0.43,4.79-0.72
		c3.21-0.59,6.43-1.27,9.65-2.06c3.19-0.8,6.52-1.61,9.7-2.47c3.21-0.87,6.37-1.72,9.54-2.81l9.55-3.19l9.65-3.1l4.91-1.53
		l2.46-0.76l2.46-0.68c1.65-0.45,3.33-0.91,5.07-1.31c1.73-0.39,3.53-0.73,5.26-0.98c3.38-0.52,7.08-0.91,10.7-0.74
		c1.84,0.09,3.54,0.25,5.32,0.49c1.78,0.26,3.56,0.6,5.3,1.11c6.98,2.01,13.1,6.3,17.06,11.9c-5.4-4.2-11.59-6.94-17.94-7.57
		c-1.58-0.18-3.17-0.25-4.77-0.23c-1.6,0.03-3.3,0.07-4.84,0.22c-3.17,0.27-6.19,0.95-9.45,1.77c-3.15,0.76-6.13,1.79-9.32,2.92
		c-3.2,1.12-6.3,2.33-9.45,3.48c-3.11,1.15-6.4,2.3-9.6,3.45l-9.7,3.35c-3.26,1.07-6.65,1.98-10,2.81
		c-3.39,0.79-6.67,1.54-10.09,2.2c-3.41,0.64-6.85,1.22-10.36,1.57c-1.75,0.18-3.52,0.33-5.32,0.39c-0.9,0.03-1.8,0.04-2.71,0.03
		c-0.95-0.01-1.93-0.07-2.86-0.16c-1.88-0.19-3.75-0.55-5.62-1.13c-1.86-0.58-3.76-1.36-5.51-2.71c-0.87-0.63-1.71-1.52-2.38-2.41
		c-0.52-0.79-1.05-1.56-1.49-2.42c-0.9-1.68-1.64-3.52-1.97-5.5c-0.32-1.97-0.22-4.05,0.39-5.94c0.61-1.88,1.6-3.56,2.86-4.9
		C115.15,57.47,118.25,55.67,121.5,54.58z"/>
</g>
</svg>
